<svg width="143" height="143" viewBox="0 0 143 143" fill="none" xmlns="http://www.w3.org/2000/svg">
<path d="M29.7917 17.875H113.208C119.79 17.875 125.125 23.2103 125.125 29.7917V42V113.208C125.125 119.79 119.79 125.125 113.208 125.125H29.7917C23.2103 125.125 17.875 119.79 17.875 113.208V42V29.7917C17.875 23.2103 23.2103 17.875 29.7917 17.875Z" fill="white"/>
<path d="M17.875 42V113.208C17.875 119.79 23.2103 125.125 29.7917 125.125H113.208C119.79 125.125 125.125 119.79 125.125 113.208V42M17.875 42V29.7917C17.875 23.2103 23.2103 17.875 29.7917 17.875H113.208C119.79 17.875 125.125 23.2103 125.125 29.7917V42M17.875 42H125.125" stroke="black" stroke-width="11.9167" stroke-linecap="round" stroke-linejoin="round"/>
<path d="M89.8433 92.7687H84.1163M93.5 84.0001H89.8433H84.1163V92.7687M57.5 63L50 76.462L57.5 80.5M84.1163 101.537V92.7687" stroke="black" stroke-width="5" stroke-linecap="round" stroke-linejoin="round"/>
</svg>
